<?xml version="1.0" encoding="utf-8"?>
<!-- Generator: Adobe Illustrator 23.0.5, SVG Export Plug-In . SVG Version: 6.00 Build 0)  -->
<svg version="1.1" id="Layer_1" xmlns="http://www.w3.org/2000/svg" xmlns:xlink="http://www.w3.org/1999/xlink" x="0px" y="0px"
	 viewBox="0 0 450 450" style="enable-background:new 0 0 450 450;" xml:space="preserve">
<style type="text/css">
	.st0{fill:#2081AB;}
	.st1{fill:#87C10D;}
	.st2{fill:#095EA1;}
	.st3{fill:#064182;}
	.st4{fill:#9ED31C;}
	.st5{opacity:0.56;}
	.st6{opacity:0.56;fill:#10162E;}
</style>
<g>
	<g>
		
			<ellipse transform="matrix(0.7071 -0.7071 0.7071 0.7071 -93.2265 225.5793)" class="st0" cx="225.7" cy="225.3" rx="220.3" ry="220.3"/>
		<path class="st1" d="M195.7,19.5l-64.3,19.3l-12.9,22.5l-16.1,17.7v25.7c0,0,53,6.4,54.6,0c1.6-6.4,38.6-9.6,38.6-9.6l-14.5,30.5
			l14.5,6.4h-46.6h-11.3h-14.5l-12.9,8l-8,16.1c0,0,12.9,37,11.3,43.4c-1.6,6.4-12.9,14.5,1.6,16.1c14.5,1.6,33.8,9.8,33.8,9.8
			l46.6-19.4l37,67.5l-7,32.1c0,0-15.6,22.5-17.2,28.9c-1.6,6.4,3.2,24.1,3.2,24.1h41.8l51.4-78.8l-9.6-43.4l9.6-27.3
			c0,0,38.6-8,46.6-11.3c8-3.2,12.9,0,20.9,0c8,0,19.3-1.6,24.1-8.8c4.8-7.2,27.3-28.1,27.3-28.1l-10.5-43.4l-48.7-53.1l-45.2-28.9
			l-75.5-19.3L195.7,19.5z"/>
		<path class="st1" d="M34.9,152.9v38.6l30.5,33.9L59,273.4L50.2,304c0,0,18.5,20.9,23.3,24.1c4.8,3.2,28.9,41.8,28.9,41.8
			l88.4,54.6c0,0-61.1-12.9-65.9-14.5c-4.8-1.6-68.1-43.2-68.1-43.2l-39.2-68.9L5.4,233.2l12.2-80.4l22.2-24.1L34.9,152.9z"/>
		<path class="st1" d="M423.9,255.7h-41.8c0,0-4.8,30.5-6.4,37c-1.6,6.4-11.3,45-11.3,45l16.1,20.9l33.8-51.4L423.9,255.7z"/>
		<path class="st2" d="M102.4,54.4c-3.2,2.4-50.2,72.7-52.6,74.3c-2.4,1.6-7.2,41.4,0,43.8c7.2,2.4,24.4,25.3,24.4,25.3
			s15.4,32,15.4,27.4c0-4.5-1.2-43.3-1.2-43.3s-3.6-28.7-4.8-33.5s6-20.5,6-26.5C89.6,115.9,102.4,54.4,102.4,54.4z"/>
		<path class="st2" d="M89.6,255.7c-2.4,7.2-22.3,42.2-15.4,42.2c6.9,0,38.3,35,38.3,35s9.6,22.5,13.3,25.7
			c3.6,3.2,78.4,59.9,82,59.9c3.6,0,86.8-9.6,90.4-12.1c3.6-2.4,63.9-22.9,66.3-28.9c2.4-6-14.5-31.3-14.5-31.3l-26.5,12.5
			l-89.2,22.5l-43.4-9.6v-47l21.7-47.8l-30.1-51.3L89.6,255.7z"/>
		<path class="st2" d="M305.4,329.3h33.8l10.8-45.8l25.3-39.8l35-12.1l13.7-31.3h-29.7c0,0-8,15.7-12.9,13.3
			c-4.8-2.4-37.4-4.8-42.2-3.6c-4.8,1.2-26.5,15.8-26.5,15.8l13.3,50.9L305.4,329.3z"/>
		<path class="st3" d="M167.5,264.8l-31.3,11.9h-24.9l23.3,52.6c0,0,7.2,19.7,11.3,20.5c4,0.8,24.1,16.1,25.7,18.5
			c1.6,2.4,8.8,15.3,11.3,16.1c2.4,0.8-9.6-47.4-9.6-47.4l-7.2-26.5c0,0,3.2-8,8-14.5c4.8-6.4,16.9-19.3,16.9-19.3L167.5,264.8z"/>
		<path class="st3" d="M356.4,220.4l-16.1,5.4l-7.2,17.9c0,0,0.8,18.1,0,21.1c-0.8,3,1.6,31.9,0,28.7c-1.6-3.2,10.3-26.5,11.6-32.1
			c1.3-5.6,6.1-18.5,11.7-22.5c5.6-4,12.1-13.5,12.1-13.5L356.4,220.4z"/>
		<path class="st3" d="M61.5,158.5l-4-18.4l9.6-15.3l12.1-14.5c0,0,7.2-16.9,5.6-12.9c-1.6,4-5.6,42.7-5.6,42.7l-4.9,15.2l4.1,16.1
			L61.5,158.5z"/>
		<path class="st4" d="M242.3,22.7l-80.4,31.7l-32.1,16.5l21.3,6.4l46.2-12.9c0,0,20.4-3.2,21.4,1.6c1.1,4.8,7,30.7,7,30.7
			s-10.7,20.7-13.9,32c-3.2,11.3,18.8,20.9,7,28.9c-11.8,8,23.6,33.8,23.6,33.8s35.4-24.1,43.4-20.1c8,4,35,5.6,47.2,0
			c12.2-5.6,17.8-31.3,17.8-31.3l-8.8-43.3c0,0-40.2-33.1-56.3-42.4s-16.1-9.2-16.1-9.2L242.3,22.7z"/>
		<path class="st4" d="M23.7,200.3c0,5.6,22.3,36.2,22.3,36.2v19.3l-11.1,38v13.4c0,0-16.9-49.9-17.6-53.4s1.6-20.5,1.6-20.5
			L23.7,200.3z"/>
		<path class="st4" d="M240.2,230.8l7.7,22.9v32.5l-7.7,30.5l-21.5,24.1l3.5,7.2c0,0,4,8,7.2,0c3.2-8,18.5-18.9,18.5-18.9l15.3-7.4
			c0,0,12.9-23.9,15.3-28.1c2.4-4.3,8.8-15.5,8.8-17.1c0-1.6,6.4-4.4,3.2-11.9c-3.2-7.4-12.1-31.5-13.7-34
			c-1.6-2.4-3.2-8.8-1.6-13.7c1.6-4.8-3.2-16.9-3.2-16.9s-31.3,22.5-35.4,20.1C232.6,218,240.2,230.8,240.2,230.8z"/>
		<path class="st4" d="M184.4,148.9h-40.2c0,0-10.4,0.8-14.5,3.2c-4,2.4-2.4,11.3,0,19.3c2.4,8,4.8,24.9,4.8,24.9l2.4,15.3
			l24.1-31.3l18.5,1.8c0,0,20.9-5,21.7-10.6C202.1,165.7,184.4,148.9,184.4,148.9z"/>
		<path class="st3" d="M131.4,38.8l-1.6,21.7l-18.5,17.5l-4.2,11.5v10.8c0,0,21.9-3,22.7,0c0.8,3,21.3,3,21.3,3s21.1-9.6,23.5-10.8
			c2.4-1.2,17.5,5.8,21.1,2.6c3.6-3.2-2.1,13.8-4.8,14.9c-2.7,1.1-7.1,10.4-7.1,10.4l17.6,11.3l-78,0.4c0,0,54.2-6.4,53.6-8.2
			c-0.6-1.8,9.6-19.9,9.6-19.9l-11.2-6.2l-21.2,15.2h-47.1l-9-16.1l4.3-23.1l16.7-15.1L131.4,38.8z"/>
		<path class="st3" d="M149.1,225.3l46.6-19.4l37,67.5l-7,32.1l-17.4,34l7.3,19h38l-10.8,6.8h-19.9l-18.1-4.2l-0.6-19.9l3.6-31.3
			c0,0,13.5-16.9,11-21.7c-2.6-4.8-9.2-27.1-9.2-27.1l-18.7-40.8H183L149.1,225.3z"/>
	</g>
	<g class="st5">
		<path class="st6" d="M348.4,49.4c24.3,34.8,38.7,77.1,38.7,122.7c0,118.4-96.3,214.7-214.7,214.7c-45.6,0-87.9-14.3-122.7-38.7
			c38.8,55.5,103.2,91.9,176,91.9c118.4,0,214.7-96.3,214.7-214.7C440.3,152.6,403.9,88.2,348.4,49.4z"/>
	</g>
</g>
</svg>
