<?xml version="1.0" encoding="utf-8"?>
<!-- Generator: Adobe Illustrator 23.0.5, SVG Export Plug-In . SVG Version: 6.00 Build 0)  -->
<svg version="1.1" id="Layer_1" xmlns="http://www.w3.org/2000/svg" xmlns:xlink="http://www.w3.org/1999/xlink" x="0px" y="0px"
	 viewBox="0 0 450 450" style="enable-background:new 0 0 450 450;" xml:space="preserve">
<style type="text/css">
	.st0{fill:#FF8F68;}
	.st1{fill:#EF7959;}
	.st2{fill:#FFC3B3;}
	.st3{fill:#A5766A;}
	.st4{opacity:0.21;}
	.st5{opacity:0.56;fill:#10162E;}
	.st6{opacity:0.12;}
	.st7{fill:#10162E;}
</style>
<g>
	<g>
		
			<ellipse transform="matrix(0.7071 -0.7071 0.7071 0.7071 -93.5999 224.6778)" class="st0" cx="224.4" cy="225.3" rx="222.3" ry="222.3"/>
		<g>
			<path class="st1" d="M326.8,225.3c0-100.5-69.6-185-163.1-208c16.4-4,33.4-6.2,51-6.2c118.1,0,214.2,96.1,214.2,214.2
				c0,118.1-96.1,214.2-214.2,214.2c-17.6,0-34.7-2.2-51-6.2C257.2,410.4,326.8,325.8,326.8,225.3z"/>
		</g>
		<path class="st2" d="M230.8,41.3c34.2-1.5,71.7,14.1,101-3.6C284,6.9,223.2-2.8,168.1,11.5c-32.3,8.4-62.3,25-87,47.5
			c-12,10.9-52.3,45.3-27.8,53c20.2,6.3,64-22.6,80.2-31.6C164,63.4,194.8,42.9,230.8,41.3z"/>
		<path class="st3" d="M430.8,296.1c1-4.5-1.6-9.4-5.4-12.2c-16.4-12.4-44.9-11.8-63.8-7.5c-26.6,6.1-51.1,19.7-77.9,25.1
			c-26.8,5.4-59-0.1-73.1-23.5c-2.5-4.2-4.6-9-8.6-11.7c-7.4-5-18.3-0.3-22.9,7.4c-4.1,6.9-1.7,17.3-6.1,23.2
			c-1.9,2.5-5.2,3.9-8.3,3.5c-5.2-0.7-8.8-6.2-8.9-11.4c0-3.6,1.2-7,1.4-10.6c0.2-3.6-1-7.6-4.3-9.1c-3.6-1.6-7.8,0.9-10.2,4.1
			c-2.4,3.1-3.8,7-6.6,9.8c-7.9,8.2-25.9-7.9-33.8-11.7c-25-12-56.3-9.3-78.9,6.7c-16.6,11.8,7,34.9,24.7,45
			c17.6,10.1,39.2,18.3,46.5,37.3c2.3,5.9,3,12.6,6.8,17.6c8.1,10.8,24.6,8.4,37.9,6.1c13.3-2.3,31-0.8,34.8,12.2
			c1.9,6.6-0.8,14.3,2.4,20.4c10.5,20.1,64.1-1.8,78.9-6.8c31.4-10.7,61.1-25.6,90.7-40.5c13-6.6,26.6-13.5,35.1-25.4
			c9.9-13.7,15.3-30.3,32.7-36.8c6.2-2.3,14-3.7,16.5-9.8C430.6,297.1,430.7,296.6,430.8,296.1z"/>
		<path class="st2" d="M65.7,345.2c3.6,6.6,7.2,14.5,14.4,16.5c6.3,1.7,13.2-1.8,19.6-0.3c13.9,3.4,12.9,25.5,24.8,33.4
			c11.8,7.8,27.5-2.6,41.4-0.5c11.5,1.8,20.1,11.9,31.3,15.2c7.5,2.2,15.5,1.2,23.3,0c65.6-10,129.3-32.1,187.1-64.7
			C363.2,411,281,449.7,201.8,441.8c-38.9-3.9-76.3-18.9-107.9-41.9c-28.7-20.9-63-54.6-72.7-89.9C36,302.5,59.9,334.4,65.7,345.2z"
			/>
		<g>
			<g>
				<path class="st2" d="M57.9,337.6c4.7,0,4.7-7.3,0-7.3C53.2,330.4,53.2,337.6,57.9,337.6L57.9,337.6z"/>
			</g>
			<g>
				<path class="st2" d="M70.8,343.7c4.5,0,4.6-7.1,0-7.1C66.3,336.7,66.2,343.7,70.8,343.7L70.8,343.7z"/>
			</g>
			<g>
				<path class="st2" d="M73.2,347.3c0.5,0,0.5-0.8,0-0.8S72.7,347.3,73.2,347.3L73.2,347.3z"/>
			</g>
			<g>
				<path class="st2" d="M74.8,358.1c4.8,0,4.8-7.4,0-7.4C70.1,350.7,70.1,358.1,74.8,358.1L74.8,358.1z"/>
			</g>
			<g>
				<path class="st2" d="M81.6,366.4c5.3,0,5.3-8.3,0-8.3C76.2,358.1,76.2,366.4,81.6,366.4L81.6,366.4z"/>
			</g>
			<g>
				<path class="st2" d="M84.2,355.6c4.9,0,4.9-7.6,0-7.6C79.3,347.9,79.3,355.6,84.2,355.6L84.2,355.6z"/>
			</g>
			<g>
				<path class="st2" d="M115.7,385.9c3.4,0,3.4-5.4,0-5.4C112.2,380.5,112.2,385.9,115.7,385.9L115.7,385.9z"/>
			</g>
			<g>
				<path class="st2" d="M133.7,378.6c5.5,0,5.5-8.5,0-8.5C128.2,370.1,128.2,378.6,133.7,378.6L133.7,378.6z"/>
			</g>
			<g>
				<path class="st2" d="M140.7,387c4.9,0,4.9-7.6,0-7.6C135.8,379.4,135.8,387,140.7,387L140.7,387z"/>
			</g>
			<g>
				<path class="st2" d="M157.6,390.7c2.5,0,2.5-3.8,0-3.8C155.2,386.9,155.2,390.7,157.6,390.7L157.6,390.7z"/>
			</g>
			<g>
				<path class="st2" d="M185.3,407.5c6.4,0,6.4-9.9,0-9.9C178.9,397.6,178.9,407.5,185.3,407.5L185.3,407.5z"/>
			</g>
			<g>
				<path class="st2" d="M199.8,400.7c5.2,0,5.2-8.1,0-8.1C194.6,392.6,194.6,400.7,199.8,400.7L199.8,400.7z"/>
			</g>
			<g>
				<path class="st2" d="M205.2,409.9c4,0,4-6.2,0-6.2C201.2,403.8,201.2,409.9,205.2,409.9L205.2,409.9z"/>
			</g>
			<g>
				<path class="st2" d="M240.5,412.5c0.1-0.1,0.2-0.2,0.3-0.3c4.7-3.9,1.2-11.7-4.2-12.3c-5.2-0.6-11.1,5.8-7.3,10.8
					c0.1,0.1,0.2,0.2,0.3,0.3C232.5,414.9,236.7,415.6,240.5,412.5L240.5,412.5z"/>
			</g>
			<g>
				<path class="st2" d="M251.7,404.7c4.2,0,4.2-6.5,0-6.5C247.5,398.2,247.5,404.7,251.7,404.7L251.7,404.7z"/>
			</g>
			<g>
				<path class="st2" d="M257.9,393.3c3.4,0,3.4-5.2,0-5.2C254.5,388.1,254.5,393.3,257.9,393.3L257.9,393.3z"/>
			</g>
			<g>
				<path class="st2" d="M278.6,393.9c2.3,0,2.3-3.6,0-3.6C276.2,390.2,276.2,393.9,278.6,393.9L278.6,393.9z"/>
			</g>
			<g>
				<path class="st2" d="M287.4,381.3c5.5,0,5.5-8.5,0-8.5C281.9,372.7,281.9,381.3,287.4,381.3L287.4,381.3z"/>
			</g>
			<g>
				<path class="st2" d="M296.3,385.9c3.5,0,3.5-5.5,0-5.5C292.8,380.5,292.8,385.9,296.3,385.9L296.3,385.9z"/>
			</g>
			<g>
				<path class="st2" d="M304.6,393.4c8.6,0,8.7-13.4,0-13.4C296,380,296,393.4,304.6,393.4L304.6,393.4z"/>
			</g>
			<g>
				<path class="st2" d="M321.6,384.3c5.9,0,6-9.2,0-9.2C315.6,375.1,315.6,384.3,321.6,384.3L321.6,384.3z"/>
			</g>
			<g>
				<path class="st2" d="M335,380.9c4.9,0,4.9-7.6,0-7.6C330.1,373.3,330.1,380.9,335,380.9L335,380.9z"/>
			</g>
			<g>
				<path class="st2" d="M347.1,372.4c5.1,0,5.1-8,0-8C342,364.4,342,372.4,347.1,372.4L347.1,372.4z"/>
			</g>
			<g>
				<path class="st2" d="M364.8,369.2c3.4,0,3.4-5.4,0-5.4C361.4,363.9,361.4,369.2,364.8,369.2L364.8,369.2z"/>
			</g>
			<g>
				<path class="st2" d="M376.1,359.7c3.6,0,3.7-5.7,0-5.7C372.5,354,372.5,359.7,376.1,359.7L376.1,359.7z"/>
			</g>
			<g>
				<path class="st2" d="M389,363.1c4.9,0,4.9-7.6,0-7.6C384.1,355.5,384.1,363.1,389,363.1L389,363.1z"/>
			</g>
			<g>
				<path class="st2" d="M392.7,360.3c0.2-0.7,0.4-1.4,0.5-2.2c1.2-4.8-6.2-6.9-7.4-2c-0.2,0.7-0.4,1.4-0.5,2.2
					C384.1,363.1,391.5,365.1,392.7,360.3L392.7,360.3z"/>
			</g>
			<g>
				<path class="st2" d="M401.2,347.2c0.1-0.9,0.1-1.8,0-2.7c-0.1-3.4-4.2-5.2-6.7-2.8c-0.7,0.6-1.3,1.2-1.8,2
					C386.9,350.8,400.6,356.1,401.2,347.2L401.2,347.2z"/>
			</g>
			<g>
				<path class="st2" d="M397.9,343.7c4.9,0,4.9-7.6,0-7.6C393,336.1,393,343.7,397.9,343.7L397.9,343.7z"/>
			</g>
			<g>
				<path class="st2" d="M376.9,354.5c4.2,0,4.2-6.5,0-6.5C372.7,348,372.7,354.5,376.9,354.5L376.9,354.5z"/>
			</g>
			<g>
				<path class="st2" d="M51,112.5c1.4-0.6,1.5-0.7,2.5-1.7c0.4-0.4,0.4-1.1,0-1.4c-1-1-1.2-1.1-2.5-1.7
					C45.7,105.5,45.7,114.7,51,112.5L51,112.5z"/>
			</g>
		</g>
		<g class="st4">
			<g>
				<path class="st5" d="M333.2,40.9C352.1,72.8,363,110,363,149.7c0,118.1-96.1,214.2-214.2,214.2c-39.7,0-76.9-10.9-108.8-29.8
					c37.3,63,106,105.4,184.4,105.4c118.1,0,214.2-96.1,214.2-214.2C438.6,146.9,396.2,78.3,333.2,40.9z"/>
			</g>
		</g>
	</g>
	<path class="st3" d="M127.3,114.7c-5.2,8.8-6.3,21.1-15.3,25.8c-8.5,4.4-21-0.1-27.2,7.3c-4.4,5.3-1.8,14.3,4.1,17.8
		c6,3.5,13.8,2.4,19.8-1.1c4.4-2.6,11-10.8,16.6-8.4c2.4,1,4,3.7,3.9,6.3c-0.2,3.1-2.5,5.8-2.1,8.8c0.6,4.1,6.2,5.7,9.9,3.9
		c3.7-1.8,5.9-5.7,7.8-9.3c5.3-10.1,11.9-19.1,16.8-29.2c4.5-9.3,9.1-19.2,18.8-24.2c10.9-5.7,24.9-2.9,35.5-9.2
		c22.6-13.3,3.8-41.8-18.8-27.8c-11.8,7.3-22.3,12.9-35.4,17.9C149.2,97.8,134.6,102.5,127.3,114.7z"/>
	<path class="st3" d="M286.7,66.1c7.6-0.1,13.7,2.9,14.4,11c0.9,10.3-4.5,25.4-15.6,28c-10,2.4-30-7.7-29.1-19.5
		C257.1,75.7,273.9,66.3,286.7,66.1z"/>
	<g>
		<g>
			<path class="st3" d="M152,333.4c0.9,0,0.9-1.4,0-1.4C151,332,151,333.4,152,333.4L152,333.4z"/>
		</g>
	</g>
	<g class="st6">
		<g>
			<path class="st7" d="M96.3,310.3c8.6,0,8.6-13.4,0-13.4C87.7,297,87.7,310.3,96.3,310.3L96.3,310.3z"/>
		</g>
		<g>
			<path class="st7" d="M125.4,358.3c8.1,0,15.9-7.1,15.5-15.5c-0.4-8.4-6.8-15.5-15.5-15.5c-8.1,0-15.8,7.1-15.5,15.5
				C110.3,351.2,116.8,358.3,125.4,358.3L125.4,358.3z"/>
		</g>
		<g>
			<path class="st7" d="M199.5,337.1c7.7,0,7.8-12,0-12C191.8,325,191.8,337.1,199.5,337.1L199.5,337.1z"/>
		</g>
		<g>
			<path class="st7" d="M359.2,283.3c14.3,0,14.3-22.2,0-22.2C344.9,261.1,344.9,283.3,359.2,283.3L359.2,283.3z"/>
		</g>
		<g>
			<path class="st7" d="M346.3,163.8c0.5,0,0.5-0.8,0-0.8S345.8,163.8,346.3,163.8L346.3,163.8z"/>
		</g>
		<g>
			<path class="st7" d="M318.1,183.3c11.2,0,11.2-17.4,0-17.4C306.9,165.9,306.9,183.3,318.1,183.3L318.1,183.3z"/>
		</g>
		<g>
			<path class="st7" d="M267.3,230.6c12.9,0,12.9-20.1,0-20.1C254.4,210.6,254.3,230.6,267.3,230.6L267.3,230.6z"/>
		</g>
		<g>
			<path class="st7" d="M233.4,125c7.7,0,7.8-12,0-12C225.7,113,225.6,125,233.4,125L233.4,125z"/>
		</g>
		<g>
			<path class="st7" d="M62.5,149.7c11.4,0,11.5-17.8,0-17.8C51,131.9,51,149.7,62.5,149.7L62.5,149.7z"/>
		</g>
	</g>
</g>
</svg>
