<?xml version="1.0" encoding="utf-8"?>
<!-- Generator: Adobe Illustrator 23.0.5, SVG Export Plug-In . SVG Version: 6.00 Build 0)  -->
<svg version="1.1" id="Layer_1" xmlns="http://www.w3.org/2000/svg" xmlns:xlink="http://www.w3.org/1999/xlink" x="0px" y="0px"
	 viewBox="0 0 450 450" style="enable-background:new 0 0 450 450;" xml:space="preserve">
<style type="text/css">
	.st0{fill:#CCB278;}
	.st1{fill:#E3CB8E;}
	.st2{fill:#EFD9A5;}
	.st3{opacity:0.56;fill:#E3CB8E;}
	.st4{opacity:0.56;}
	.st5{opacity:0.56;fill:#10162E;}
</style>
<g>
	<g>
		
			<ellipse transform="matrix(0.7071 -0.7071 0.7071 0.7071 -93.4924 225.2339)" class="st0" cx="225.1" cy="225.5" rx="220.5" ry="220.5"/>
		<path class="st1" d="M220.1,62.8c11.7,4.4,22.4,11.9,29.3,22.3c10.2,15.3,12.5,46.6-3.5,58.8c-8.3,6.3-19.2,8.2-28.3,12.6
			c-10.2,4.9-20.7,9.2-32.1,10.3c-12.6,1.2-26-1.6-35.6-9.9c-4.3-3.7-8-8.6-13.4-10.5c-8.9-3.3-31.5,4.6-30.9-11.8
			c0.3-8,11.6-22.5,15.7-30.1c11.9-22.5,31.3-39.3,56.6-44.5C191.9,57,206.7,57.7,220.1,62.8z"/>
		<g>
			<path class="st2" d="M234,121.6c8.8,0,8.8-13.7,0-13.7C225.2,107.9,225.2,121.6,234,121.6L234,121.6z"/>
		</g>
		<g>
			<path class="st0" d="M204.9,136.9c4.1,0,4.1-6.3,0-6.3C200.9,130.6,200.9,136.9,204.9,136.9L204.9,136.9z"/>
		</g>
		<g>
			<path class="st0" d="M134.7,115.6c0.1-0.3,0.1-0.7,0.2-1c0.1-0.8-0.5-1.4-1.3-1.3c-0.3,0.1-0.7,0.1-1,0.2
				C128.8,114.2,134.1,119.5,134.7,115.6L134.7,115.6z"/>
		</g>
		<g>
			<path class="st2" d="M153.4,83.5c-0.5-0.3,1.8,1.5,2.2,1.7c3.4,2.3,9.7,0.2,10.3-4.2c0.8-5.2-0.9-10.3-6.5-11.7
				C150.8,67.2,145.9,78.8,153.4,83.5L153.4,83.5z"/>
		</g>
		<g>
			<path class="st0" d="M196.1,98.9c4,0,4-6.2,0-6.2C192.1,92.7,192.1,98.9,196.1,98.9L196.1,98.9z"/>
		</g>
		<path class="st1" d="M276.9,39.1c8.9-2.1,18.5,0.4,26.4,5c8,4.6,14.6,11.1,21.2,17.6c10.5,10.3,21,20.6,31.4,30.9
			c26.2,25.7,53.4,53.2,63.2,88.6c7.9,28.4,3.1,60-12.8,84.8c-2.7,4.2-6.1,8.5-11,9.1c-4.8,0.6-9.3-2.5-12.7-6.1
			c-12.8-13.5-16.5-33.6-29.1-47.2c-13.8-15-36.2-20-49.3-35.6c-16.3-19.5-13-48.1-19.1-72.7c-5.2-20.7-17.8-39.4-35-52
			c-5.7-4.1-11.8-7.7-16.6-12.8c-4.8-5.1-8.1-12.3-6.3-19.1c4.7-18.1,24.8,1.2,32.2,5.1C266.2,38,269.5,40.9,276.9,39.1z"/>
		<path class="st1" d="M89.9,269c9.3,10.8,7.5,26.9,6.3,41.2s0.3,31.4,12.7,38.5c7.6,4.4,17,3.5,25.6,5.1c11.1,2,20.9,8.1,31.6,11.4
			c25.7,8.1,54.5,0.4,80.2,8.7c12.1,3.9,23.2,11.3,35.9,12.6c16.2,1.6,32.2-7.6,41.8-20.7c9.6-13.1,13.6-29.7,14.6-45.9
			c0.8-12.5-0.4-26.4-9.2-35.4c-6.7-6.9-16.6-9.6-24.4-15.1c-15.7-11-22.4-32.2-39.2-41.3c-11.8-6.3-26.2-5.4-38.6-10.5
			c-11.1-4.6-19.9-13.7-31-18.2c-17.5-7.1-37.9-1.5-54,8.4c-16.1,9.9-29.5,23.7-44.7,34.8C93.2,253.1,92,257.8,89.9,269z"/>
		<path class="st1" d="M41,206.1c-3.2,6.4-4.5,15.1,0.7,20c5.4,5,14,2.8,20.7,0c9.3-3.9,18.4-8.7,25.9-15.5
			c7.5-6.8,13.3-15.7,15-25.7c0.9-5.5,0.3-11.8-3.7-15.8C84.3,153.9,47.3,193.6,41,206.1z"/>
		<path class="st1" d="M357.7,368.6c-0.3,1.5-0.5,3.2,0.3,4.6c1,1.8,3.6,2.3,5.6,1.7c2-0.7,3.6-2.2,5.1-3.6
			c7.1-6.9,14.1-13.8,21.2-20.6c8.6-8.3,17.2-16.8,23.8-26.7c3.4-5.1,6.3-11.7,3.7-17.3c-2.3-5.1-8.2-7.4-13.8-8.2
			C361.7,293.1,362.3,340.8,357.7,368.6z"/>
		<g>
			<path class="st2" d="M333.4,118c16.1,0,16.1-25,0-25C317.3,93,317.3,118,333.4,118L333.4,118z"/>
		</g>
		<g>
			<path class="st2" d="M235.3,318.7c0,0.3,0,0.5,0.1,0.8c0.3,3.8,2.9,6.5,6.7,6.7c0.3,0,0.5,0,0.8,0.1c6.8,0.5,9.8-8.6,5.4-13
				C243.8,308.9,234.8,311.9,235.3,318.7L235.3,318.7z"/>
		</g>
		<g>
			<path class="st2" d="M126.4,289.4c0.8-0.3,1.5-0.6,2.3-0.9c8.7-3.3,16-7.7,20.9-16c4.4-7.5,6.2-18.5,3.5-26.9
				c-5.9-18.3-24-29.1-42.9-24.4c-0.8,0.2-1.6,0.4-2.4,0.6c-17.8,4.5-30.2,25.4-24.5,43.1C88.7,281.6,108.1,296.3,126.4,289.4
				L126.4,289.4z"/>
		</g>
		<g>
			<path class="st2" d="M87.8,195.3c13.7,0,13.7-21.2,0-21.2C74.2,174,74.2,195.3,87.8,195.3L87.8,195.3z"/>
		</g>
		<g>
			<path class="st2" d="M384.2,337.7c14,0,14.1-21.8,0-21.8C370.2,315.9,370.2,337.7,384.2,337.7L384.2,337.7z"/>
		</g>
		<g>
			<path class="st2" d="M230,427.3c14.5,0,28.4-12.7,27.7-27.7c-0.7-15-12.2-27.7-27.7-27.7c-14.5,0-28.4,12.7-27.7,27.7
				C202.9,414.6,214.4,427.3,230,427.3L230,427.3z"/>
		</g>
		<g>
			<path class="st2" d="M167,374c10.9,0,10.9-16.9,0-16.9C156.1,357.1,156.1,374,167,374L167,374z"/>
		</g>
		<g>
			<path class="st2" d="M70.7,344.5c14.4,0,28.1-12.6,27.5-27.5c-0.7-14.9-12.1-27.5-27.5-27.5c-14.4,0-28.1,12.6-27.5,27.5
				C43.9,331.9,55.3,344.5,70.7,344.5L70.7,344.5z"/>
		</g>
		<g>
			<path class="st2" d="M46.7,278c23.5,0,23.5-36.5,0-36.5C23.2,241.5,23.2,278,46.7,278L46.7,278z"/>
		</g>
		<g>
			<path class="st2" d="M122.6,323.2c13.1,0,13.1-20.4,0-20.4C109.5,302.9,109.4,323.2,122.6,323.2L122.6,323.2z"/>
		</g>
		<g>
			<path class="st2" d="M88.7,108.5c2.8,0,2.8-4.3,0-4.3C85.9,104.2,85.9,108.5,88.7,108.5L88.7,108.5z"/>
		</g>
		<g>
			<path class="st2" d="M137.9,57.7c0.8,0,0.8-1.2,0-1.2C137.1,56.4,137.1,57.7,137.9,57.7L137.9,57.7z"/>
		</g>
		<g>
			<path class="st2" d="M106.4,134c17.9,0,17.9-27.8,0-27.8C88.5,106.1,88.5,134,106.4,134L106.4,134z"/>
		</g>
		<g>
			<path class="st2" d="M252.6,37.1c-0.1-0.1-0.2-0.1-0.4-0.2c-14-7.5-33.2,5-28,21.5c0,0.1,0.1,0.3,0.1,0.4
				c4,12.9,19.3,18.4,30.2,10C264.8,60.8,264.7,43.5,252.6,37.1L252.6,37.1z"/>
		</g>
		<g>
			<path class="st2" d="M251.8,189.3c21.6,0,21.6-33.6,0-33.6C230.2,155.7,230.1,189.3,251.8,189.3L251.8,189.3z"/>
		</g>
		<g>
			<path class="st2" d="M163.8,197c10.7,0,10.7-16.7,0-16.7C153,180.4,153,197,163.8,197L163.8,197z"/>
		</g>
		<g>
			<path class="st2" d="M233.2,238.5c2.8,0,2.8-4.3,0-4.3C230.4,234.2,230.4,238.5,233.2,238.5L233.2,238.5z"/>
		</g>
		<g>
			<path class="st2" d="M227,266.2c-0.1-0.7-0.2-1.4-0.3-2c-1.2-8.3-11.7-12.8-19-10.8c-8.1,2.2-13,10.9-10.8,19
				c0.2,0.7,0.4,1.3,0.5,2c2.2,8,10.9,12.9,18.9,10.7C225.1,282.6,228.2,274.4,227,266.2L227,266.2z"/>
		</g>
		<g>
			<path class="st2" d="M342.2,320.8c20.3,0,20.4-31.6,0-31.6C321.9,289.2,321.9,320.8,342.2,320.8L342.2,320.8z"/>
		</g>
		<g>
			<path class="st2" d="M359.2,244.2c12.2,0,12.2-18.9,0-18.9C347,225.2,347,244.2,359.2,244.2L359.2,244.2z"/>
		</g>
		<g>
			<path class="st2" d="M324.4,216.1c12.2,0,12.2-18.9,0-18.9C312.3,197.1,312.2,216.1,324.4,216.1L324.4,216.1z"/>
		</g>
		<g>
			<path class="st2" d="M316.4,65.6c23.5,0,23.5-36.5,0-36.5C292.9,29.1,292.9,65.6,316.4,65.6L316.4,65.6z"/>
		</g>
		<path class="st3" d="M93.9,59.8C73.3,77.9,58,104,59.5,131.4c2.2,39.5,37.5,69.2,73.4,85.9c35.9,16.7,75.9,26.2,106.9,50.8
			c36,28.6,55.3,76.7,49,122.2c-0.9,6.8-1.5,15.4,4.5,18.6c3.5,1.9,7.7,0.9,11.5-0.2c44.6-13.9,78.1-57.6,80.2-104.2
			c2.1-46.6-27.6-93.1-70.7-110.9c-21.7-8.9-45.5-11-67.9-17.6s-45.2-19.4-53.9-41.1c-7.5-18.7-3-39.7-1.3-59.8
			C197.8-2,131.1,27,93.9,59.8z"/>
	</g>
	<g class="st4">
		<path class="st5" d="M354.8,62.8c28.5,35.6,45.6,80.7,45.6,129.7c0,114.8-93.4,208.2-208.2,208.2c-49,0-94.1-17.1-129.7-45.6
			c38.2,47.8,96.8,78.5,162.6,78.5c114.8,0,208.2-93.4,208.2-208.2C433.4,159.7,402.6,101,354.8,62.8z"/>
	</g>
</g>
</svg>
