<?xml version="1.0" encoding="utf-8"?>
<!-- Generator: Adobe Illustrator 23.0.5, SVG Export Plug-In . SVG Version: 6.00 Build 0)  -->
<svg version="1.1" id="Layer_1" xmlns="http://www.w3.org/2000/svg" xmlns:xlink="http://www.w3.org/1999/xlink" x="0px" y="0px"
	 viewBox="0 0 450 450" style="enable-background:new 0 0 450 450;" xml:space="preserve">
<style type="text/css">
	.st0{fill:#CCB278;}
	.st1{clip-path:url(#SVGID_1_);}
	.st2{fill:#C1A367;}
	.st3{fill:#DDC38E;}
	.st4{opacity:0.4;}
	.st5{opacity:0.56;fill:#10162E;}
	.st6{fill:#EFD9A5;}
</style>
<g>
	<g>
		<g>
			<circle class="st0" cx="230.7" cy="232.9" r="148.1"/>
			<g>
				<defs>
					
						<ellipse id="SVGID_3_" transform="matrix(0.7071 -0.7071 0.7071 0.7071 -97.1025 231.3575)" cx="230.7" cy="232.9" rx="145.9" ry="145.9"/>
				</defs>
				<clipPath id="SVGID_1_">
					<use xlink:href="#SVGID_3_"  style="overflow:visible;"/>
				</clipPath>
				<g class="st1">
					<path class="st2" d="M387.7,250.9c0,0-72.5,65.7-124.9,135.2l-15.8,2.5c0,0,44.8-85.9,138.8-166.7L387.7,250.9z"/>
					<path class="st2" d="M79.1,233.5c0,0,79.4-91.4,119.4-149.3l-20.7,3.2c0,0-80.7,84.6-96.3,96.9
						C81.1,187.6,74.1,223.4,79.1,233.5z"/>
					<path class="st3" d="M385.2,209.9c0,0-95.3,74-154.4,181.6l-6.5-1.2c0,0,68.7-121.7,158.9-187.9L385.2,209.9z"/>
					<path class="st3" d="M63.4,249.1c0,0,95.3-74,154.4-181.6l6.5,1.2c0,0-68.7,121.7-158.9,187.9L63.4,249.1z"/>
					<path class="st3" d="M219.1,386.7c0,0,98.3-149.6,160.3-190.9l-0.1-4.2c0,0-76.2,58.8-166.3,196.4L219.1,386.7z"/>
					<path class="st2" d="M380.1,183.8c0,0-127.7,108.9-176.6,205.5l-24-7.9c0,0,50.4-142.6,182.7-228.3
						C362.2,153.1,377,172.5,380.1,183.8z"/>
					<path class="st3" d="M384,171.8c0,0-110,52.7-191.4,222l-26.5-15.1c0,0,79.3-164.6,199.2-234.2c4,2.8,10.5,8.3,15,17.2
						C382.3,165.4,383.4,168.8,384,171.8z"/>
					<path class="st3" d="M47.9,266.2c0,0,110-52.7,191.4-222l26.5,15.1c0,0-79.3,164.6-199.2,234.2c-4-2.8-10.5-8.3-15-17.2
						C49.7,272.6,48.6,269.2,47.9,266.2z"/>
					<path class="st2" d="M101.1,357.2c21.3-48.5,51-105.6,92.2-165.9c40.1-58.7,81.4-106.1,118-143c17,11.5,62.9,49,79.8,60.5
						c-35.9,43.1-74.2,50-139.7,120.7c-46.8,50.4-71.6,111.5-99.4,162.4C135.1,380.2,118.1,368.7,101.1,357.2z"/>
					<path class="st3" d="M351.1,133.4c0,0-118.6,62-213.6,246.1l-27-14.6c0,0,92.5-179,222.6-259.5c4.1,2.8,10.6,8.2,14.8,17.4
						C349.6,126.7,350.5,130.3,351.1,133.4z"/>
					<path class="st0" d="M353.1,109.5c0,0-118.6,62-213.6,246.1l-27-14.6c0,0,92.5-179,222.6-259.5c4.1,2.8,10.6,8.2,14.8,17.4
						C351.6,102.8,352.6,106.4,353.1,109.5z"/>
					<path class="st2" d="M346.4,103.3c0,0-118.6,62-213.6,246.1l-27-14.6c0,0,92.5-179,222.6-259.5c4.1,2.8,10.6,8.2,14.8,17.4
						C344.9,96.6,345.9,100.2,346.4,103.3z"/>
					<path class="st3" d="M77.7,297.9c0,0,116.5-66,205.2-253.2l27.5,13.6c0,0-86.4,182-213.6,266.9c-4.2-2.6-10.9-7.8-15.4-16.9
						C79.4,304.5,78.3,300.9,77.7,297.9z"/>
					<path class="st3" d="M-8.5,265.2c0,0,116.5-66,205.2-253.2l27.5,13.6c0,0-86.4,182-213.6,266.9c-4.2-2.6-10.9-7.8-15.4-16.9
						C-6.8,271.9-7.8,268.3-8.5,265.2z"/>
					<path class="st2" d="M-21.4,265.1c0,0,116.5-66,205.2-253.2l27.5,13.6c0,0-86.4,182-213.6,266.9c-4.2-2.6-10.9-7.8-15.4-16.9
						C-19.7,271.7-20.8,268.2-21.4,265.1z"/>
					<path class="st0" d="M-27.8,261.5c0,0,116.5-66,205.2-253.2l27.5,13.6c0,0-86.4,182-213.6,266.9c-4.2-2.6-10.9-7.8-15.4-16.9
						C-26.1,268.1-27.2,264.5-27.8,261.5z"/>
				</g>
			</g>
			<path class="st3" d="M260.6,289c0,0,0.5-0.6,1.2-1.3c0.6-0.7,1.2-1.3,1.2-1.3s-0.5,0.6-1.2,1.3C261.2,288.4,260.6,289,260.6,289z
				"/>
			<path class="st3" d="M294.6,161.9c-2.2-2-0.4-7.4,3.9-12c4.3-4.6,9.5-6.8,11.7-4.8c2.2,2,0.4,7.4-3.9,12
				C302,161.7,296.8,163.9,294.6,161.9z"/>
		</g>
		<g class="st4">
			<path class="st5" d="M205.6,89.3c30.8,2.9,60.9,15.5,85.3,38c59.1,54.6,62.7,147.1,8.1,206.2c-22.6,24.4-51.6,39.3-82.1,44.6
				c43.7,4.1,88.8-11.5,120.8-46.2c54.6-59.1,50.9-151.6-8.1-206.2C295.1,93.7,248.9,81.7,205.6,89.3z"/>
		</g>
	</g>
	<path class="st6" d="M204.5,200.8C92.5,322,13.9,431.5,28.9,445.4c9.8,9.1,57.5-25.2,120.7-84l-1.8-1.7
		c-32.4,27.7-55.5,42.2-61.3,36.9c-11.2-10.4,47.7-92.4,131.6-183.3s161.1-156,172.3-145.6c6.4,5.9-10.1,35.3-41,76.3l1.4,1.3
		c59.5-73.6,94.2-129.2,83.8-138.8C419.4-7.4,316.5,79.6,204.5,200.8z"/>
</g>
</svg>
