<?xml version="1.0" encoding="utf-8"?>
<!-- Generator: Adobe Illustrator 23.0.5, SVG Export Plug-In . SVG Version: 6.00 Build 0)  -->
<svg version="1.1" id="Layer_1" xmlns="http://www.w3.org/2000/svg" xmlns:xlink="http://www.w3.org/1999/xlink" x="0px" y="0px"
	 viewBox="0 0 450 450" style="enable-background:new 0 0 450 450;" xml:space="preserve">
<style type="text/css">
	.st0{display:none;}
	.st1{display:inline;}
	.st2{fill:#CCB278;}
	.st3{fill:#E3CB8E;}
	.st4{fill:#EFD9A5;}
	.st5{opacity:0.56;fill:#E3CB8E;enable-background:new    ;}
	.st6{display:inline;opacity:0.56;}
	.st7{opacity:0.56;fill:#10162E;enable-background:new    ;}
	.st8{clip-path:url(#SVGID_1_);}
	.st9{fill:#BA8F65;}
	.st10{fill:#C16827;}
	.st11{fill:#E57F39;}
	.st12{opacity:0.4;}
	.st13{opacity:0.56;fill:#10162E;}
</style>
<g class="st0">
	<g class="st1">
		<ellipse class="st2" cx="225.1" cy="225.5" rx="220.5" ry="220.5"/>
		<path class="st3" d="M220.1,62.8c11.7,4.4,22.4,11.9,29.3,22.3c10.2,15.3,12.5,46.6-3.5,58.8c-8.3,6.3-19.2,8.2-28.3,12.6
			c-10.2,4.9-20.7,9.2-32.1,10.3c-12.6,1.2-26-1.6-35.6-9.9c-4.3-3.7-8-8.6-13.4-10.5c-8.9-3.3-31.5,4.6-30.9-11.8
			c0.3-8,11.6-22.5,15.7-30.1C133.2,82,152.6,65.2,177.9,60C191.9,57,206.7,57.7,220.1,62.8z"/>
		<g>
			<path class="st4" d="M234,121.6c8.8,0,8.8-13.7,0-13.7S225.2,121.6,234,121.6L234,121.6z"/>
		</g>
		<g>
			<path class="st2" d="M204.9,136.9c4.1,0,4.1-6.3,0-6.3C200.9,130.6,200.9,136.9,204.9,136.9L204.9,136.9z"/>
		</g>
		<g>
			<path class="st2" d="M134.7,115.6c0.1-0.3,0.1-0.7,0.2-1c0.1-0.8-0.5-1.4-1.3-1.3c-0.3,0.1-0.7,0.1-1,0.2
				C128.8,114.2,134.1,119.5,134.7,115.6L134.7,115.6z"/>
		</g>
		<g>
			<path class="st4" d="M153.4,83.5c-0.5-0.3,1.8,1.5,2.2,1.7c3.4,2.3,9.7,0.2,10.3-4.2c0.8-5.2-0.9-10.3-6.5-11.7
				C150.8,67.2,145.9,78.8,153.4,83.5L153.4,83.5z"/>
		</g>
		<g>
			<path class="st2" d="M196.1,98.9c4,0,4-6.2,0-6.2C192.1,92.7,192.1,98.9,196.1,98.9L196.1,98.9z"/>
		</g>
		<path class="st3" d="M276.9,39.1c8.9-2.1,18.5,0.4,26.4,5c8,4.6,14.6,11.1,21.2,17.6c10.5,10.3,21,20.6,31.4,30.9
			c26.2,25.7,53.4,53.2,63.2,88.6c7.9,28.4,3.1,60-12.8,84.8c-2.7,4.2-6.1,8.5-11,9.1c-4.8,0.6-9.3-2.5-12.7-6.1
			c-12.8-13.5-16.5-33.6-29.1-47.2c-13.8-15-36.2-20-49.3-35.6c-16.3-19.5-13-48.1-19.1-72.7c-5.2-20.7-17.8-39.4-35-52
			c-5.7-4.1-11.8-7.7-16.6-12.8s-8.1-12.3-6.3-19.1c4.7-18.1,24.8,1.2,32.2,5.1C266.2,38,269.5,40.9,276.9,39.1z"/>
		<path class="st3" d="M89.9,269c9.3,10.8,7.5,26.9,6.3,41.2s0.3,31.4,12.7,38.5c7.6,4.4,17,3.5,25.6,5.1c11.1,2,20.9,8.1,31.6,11.4
			c25.7,8.1,54.5,0.4,80.2,8.7c12.1,3.9,23.2,11.3,35.9,12.6c16.2,1.6,32.2-7.6,41.8-20.7c9.6-13.1,13.6-29.7,14.6-45.9
			c0.8-12.5-0.4-26.4-9.2-35.4c-6.7-6.9-16.6-9.6-24.4-15.1c-15.7-11-22.4-32.2-39.2-41.3c-11.8-6.3-26.2-5.4-38.6-10.5
			c-11.1-4.6-19.9-13.7-31-18.2c-17.5-7.1-37.9-1.5-54,8.4s-29.5,23.7-44.7,34.8C93.2,253.1,92,257.8,89.9,269z"/>
		<path class="st3" d="M41,206.1c-3.2,6.4-4.5,15.1,0.7,20c5.4,5,14,2.8,20.7,0c9.3-3.9,18.4-8.7,25.9-15.5s13.3-15.7,15-25.7
			c0.9-5.5,0.3-11.8-3.7-15.8C84.3,153.9,47.3,193.6,41,206.1z"/>
		<path class="st3" d="M357.7,368.6c-0.3,1.5-0.5,3.2,0.3,4.6c1,1.8,3.6,2.3,5.6,1.7c2-0.7,3.6-2.2,5.1-3.6
			c7.1-6.9,14.1-13.8,21.2-20.6c8.6-8.3,17.2-16.8,23.8-26.7c3.4-5.1,6.3-11.7,3.7-17.3c-2.3-5.1-8.2-7.4-13.8-8.2
			C361.7,293.1,362.3,340.8,357.7,368.6z"/>
		<g>
			<path class="st4" d="M333.4,118c16.1,0,16.1-25,0-25S317.3,118,333.4,118L333.4,118z"/>
		</g>
		<g>
			<path class="st4" d="M235.3,318.7c0,0.3,0,0.5,0.1,0.8c0.3,3.8,2.9,6.5,6.7,6.7c0.3,0,0.5,0,0.8,0.1c6.8,0.5,9.8-8.6,5.4-13
				C243.8,308.9,234.8,311.9,235.3,318.7L235.3,318.7z"/>
		</g>
		<g>
			<path class="st4" d="M126.4,289.4c0.8-0.3,1.5-0.6,2.3-0.9c8.7-3.3,16-7.7,20.9-16c4.4-7.5,6.2-18.5,3.5-26.9
				c-5.9-18.3-24-29.1-42.9-24.4c-0.8,0.2-1.6,0.4-2.4,0.6c-17.8,4.5-30.2,25.4-24.5,43.1C88.7,281.6,108.1,296.3,126.4,289.4
				L126.4,289.4z"/>
		</g>
		<g>
			<path class="st4" d="M87.8,195.3c13.7,0,13.7-21.2,0-21.2C74.2,174,74.2,195.3,87.8,195.3L87.8,195.3z"/>
		</g>
		<g>
			<path class="st4" d="M384.2,337.7c14,0,14.1-21.8,0-21.8C370.2,315.9,370.2,337.7,384.2,337.7L384.2,337.7z"/>
		</g>
		<g>
			<path class="st4" d="M230,427.3c14.5,0,28.4-12.7,27.7-27.7c-0.7-15-12.2-27.7-27.7-27.7c-14.5,0-28.4,12.7-27.7,27.7
				C202.9,414.6,214.4,427.3,230,427.3L230,427.3z"/>
		</g>
		<g>
			<path class="st4" d="M167,374c10.9,0,10.9-16.9,0-16.9S156.1,374,167,374L167,374z"/>
		</g>
		<g>
			<path class="st4" d="M70.7,344.5c14.4,0,28.1-12.6,27.5-27.5c-0.7-14.9-12.1-27.5-27.5-27.5c-14.4,0-28.1,12.6-27.5,27.5
				C43.9,331.9,55.3,344.5,70.7,344.5L70.7,344.5z"/>
		</g>
		<g>
			<path class="st4" d="M46.7,278c23.5,0,23.5-36.5,0-36.5S23.2,278,46.7,278L46.7,278z"/>
		</g>
		<g>
			<path class="st4" d="M122.6,323.2c13.1,0,13.1-20.4,0-20.4C109.5,302.9,109.4,323.2,122.6,323.2L122.6,323.2z"/>
		</g>
		<g>
			<path class="st4" d="M88.7,108.5c2.8,0,2.8-4.3,0-4.3C85.9,104.2,85.9,108.5,88.7,108.5L88.7,108.5z"/>
		</g>
		<g>
			<path class="st4" d="M137.9,57.7c0.8,0,0.8-1.2,0-1.2C137.1,56.4,137.1,57.7,137.9,57.7L137.9,57.7z"/>
		</g>
		<g>
			<path class="st4" d="M106.4,134c17.9,0,17.9-27.8,0-27.8C88.5,106.1,88.5,134,106.4,134L106.4,134z"/>
		</g>
		<g>
			<path class="st4" d="M252.6,37.1c-0.1-0.1-0.2-0.1-0.4-0.2c-14-7.5-33.2,5-28,21.5c0,0.1,0.1,0.3,0.1,0.4
				c4,12.9,19.3,18.4,30.2,10C264.8,60.8,264.7,43.5,252.6,37.1L252.6,37.1z"/>
		</g>
		<g>
			<path class="st4" d="M251.8,189.3c21.6,0,21.6-33.6,0-33.6C230.2,155.7,230.1,189.3,251.8,189.3L251.8,189.3z"/>
		</g>
		<g>
			<path class="st4" d="M163.8,197c10.7,0,10.7-16.7,0-16.7C153,180.4,153,197,163.8,197L163.8,197z"/>
		</g>
		<g>
			<path class="st4" d="M233.2,238.5c2.8,0,2.8-4.3,0-4.3S230.4,238.5,233.2,238.5L233.2,238.5z"/>
		</g>
		<g>
			<path class="st4" d="M227,266.2c-0.1-0.7-0.2-1.4-0.3-2c-1.2-8.3-11.7-12.8-19-10.8c-8.1,2.2-13,10.9-10.8,19
				c0.2,0.7,0.4,1.3,0.5,2c2.2,8,10.9,12.9,18.9,10.7C225.1,282.6,228.2,274.4,227,266.2L227,266.2z"/>
		</g>
		<g>
			<path class="st4" d="M342.2,320.8c20.3,0,20.4-31.6,0-31.6C321.9,289.2,321.9,320.8,342.2,320.8L342.2,320.8z"/>
		</g>
		<g>
			<path class="st4" d="M359.2,244.2c12.2,0,12.2-18.9,0-18.9C347,225.2,347,244.2,359.2,244.2L359.2,244.2z"/>
		</g>
		<g>
			<path class="st4" d="M324.4,216.1c12.2,0,12.2-18.9,0-18.9C312.3,197.1,312.2,216.1,324.4,216.1L324.4,216.1z"/>
		</g>
		<g>
			<path class="st4" d="M316.4,65.6c23.5,0,23.5-36.5,0-36.5C292.9,29.1,292.9,65.6,316.4,65.6L316.4,65.6z"/>
		</g>
		<path class="st5" d="M93.9,59.8C73.3,77.9,58,104,59.5,131.4c2.2,39.5,37.5,69.2,73.4,85.9s75.9,26.2,106.9,50.8
			c36,28.6,55.3,76.7,49,122.2c-0.9,6.8-1.5,15.4,4.5,18.6c3.5,1.9,7.7,0.9,11.5-0.2c44.6-13.9,78.1-57.6,80.2-104.2
			s-27.6-93.1-70.7-110.9c-21.7-8.9-45.5-11-67.9-17.6s-45.2-19.4-53.9-41.1c-7.5-18.7-3-39.7-1.3-59.8C197.8-2,131.1,27,93.9,59.8z
			"/>
	</g>
	<g class="st6">
		<path class="st7" d="M354.8,62.8c28.5,35.6,45.6,80.7,45.6,129.7c0,114.8-93.4,208.2-208.2,208.2c-49,0-94.1-17.1-129.7-45.6
			c38.2,47.8,96.8,78.5,162.6,78.5c114.8,0,208.2-93.4,208.2-208.2C433.4,159.7,402.6,101,354.8,62.8z"/>
	</g>
</g>
<g>
	<g>
		
			<ellipse transform="matrix(0.7071 -0.7071 0.7071 0.7071 -92.403 225.0435)" class="st2" cx="225.5" cy="224.1" rx="219.1" ry="219.1"/>
		<g>
			<defs>
				<circle id="SVGID_3_" cx="225.5" cy="224.1" r="215.9"/>
			</defs>
			<clipPath id="SVGID_1_">
				<use xlink:href="#SVGID_3_"  style="overflow:visible;"/>
			</clipPath>
			<g class="st8">
				<path class="st4" d="M87.4,35.3c0,0,144.2,12.8,272.3,0L378.3,50c0,0-138.4,37.6-320.5,16.5L87.4,35.3z"/>
				<path class="st4" d="M378.3,388.2c0,0-179.1,5.5-282.2,20.2l24.2,19.2c0,0,173,2.7,202,7.3C326.5,432.2,372.3,403.8,378.3,388.2
					z"/>
				<path class="st9" d="M45.3,79.3c0,0,176.1,29.3,352.4-14.7l5.3,8.3c0,0-201.2,47.6-363.8,16L45.3,79.3z"/>
				<path class="st9" d="M411.1,389.7c0,0-176.1-29.3-352.4,14.7l-5.3-8.3c0,0,201.2-47.6,363.8-16L411.1,389.7z"/>
				<path class="st9" d="M404.2,82.2c0,0-261.2,43.4-368.3,17.5l-4.4,4.3c0,0,140.4,23.8,380.4-16.5L404.2,82.2z"/>
				<path class="st4" d="M22.2,111.1c0,0,246.6,29.4,400.6-14.4l15.6,34c0,0-205.6,88.4-431.5,30.7C6.8,161.3,12.9,125.7,22.2,111.1
					z"/>
				<path class="st9" d="M5.1,118.8c0,0,167.7,66.7,433.5-15l10.1,44c0,0-258.5,79.2-454.6,18.7c-1-7.2-1.6-19.7,3.7-33.6
					C-0.1,127.2,2.6,122.5,5.1,118.8z"/>
				<path class="st9" d="M445.2,389.2c0,0-167.7-66.7-433.5,15l-10.1-44c0,0,258.5-79.2,454.6-18.7c1,7.2,1.6,19.7-3.7,33.6
					C450.4,380.9,447.7,385.6,445.2,389.2z"/>
				<path class="st4" d="M490.6,240.1c-74.1,25.5-165.9,50.6-272.8,66.4c-104.1,15.4-197,18-273.9,15.4
					c-4.5-30-9.9-117.5-14.4-147.5c82.9-4.2,128.8,30.3,271.4,30.6c101.8,0.2,193.1-34.1,276.3-55
					C481.6,180.1,486.1,210.1,490.6,240.1z"/>
			</g>
		</g>
		<g>
			<g>
				<path class="st4" d="M277.4,308.3c-6.8,10.8-8,25.9-0.3,36.1c5.9,7.9,15.8,11.7,25.4,13.7c6.8,1.4,13.8,2.2,20.6,1
					c4.8-0.8,9.4-2.6,14-4.4c6.4-2.5,12.7-5,19.1-7.5c6.3-2.5,12.7-5,17.7-9.7c10.4-9.8,10.9-27.3,3.6-39.6
					c-2.6-4.4-6.1-8.3-10.3-11.3c-8.1-5.8-18.3-8-28.3-8.1C317.2,278.5,289.4,289.3,277.4,308.3z"/>
			</g>
			<g>
				<path class="st4" d="M316.1,362.3c-5.3,0-11-0.9-17.6-2.8c-12.8-3.7-21.4-9.2-26.3-16.8c-7.1-11-5.8-27.2,3-39.3l0,0
					c14.7-20,45-28.8,67.4-27c12,0.9,22.3,4.7,29.7,10.9c4.2,3.5,7.7,8,10.3,13c7.6,14.9,4.6,33.3-7,42.8c-5.8,4.7-13.1,7-19.6,9
					l-20.4,6.4c-4.9,1.5-9.9,3.1-15.2,3.6C319,362.2,317.6,362.3,316.1,362.3z M277.8,305.2c-8.1,11.1-9.3,25.8-2.9,35.7
					c4.5,6.9,12.5,12,24.5,15.5c8.1,2.3,14.7,3.1,20.7,2.5c5-0.5,9.8-2,14.6-3.5L355,349c6.2-1.9,13.2-4.1,18.5-8.5
					c10.3-8.4,13-25.5,6.2-38.9c-2.3-4.6-5.6-8.8-9.5-12c-6.9-5.7-16.5-9.2-27.9-10.1C321.4,277.9,291.6,286.3,277.8,305.2
					L277.8,305.2z"/>
			</g>
			<g>
				<path class="st4" d="M315.7,366.2c-2.9,0-6.1-0.2-9.4-0.5c-14.4-1.5-24.6-5.8-31.3-13c-9.7-10.4-11.4-28-4.1-42.6l0,0
					c11.9-24.2,42.8-39.3,67.2-41.6c13-1.3,24.7,0.8,33.8,6c5.1,2.9,9.8,7.1,13.5,12c10.9,14.5,11.2,34.8,0.6,47.1
					c-5.3,6.1-12.7,10-19.3,13.4l-20.7,10.7c-5,2.6-10.1,5.2-15.6,6.8C325.9,365.6,321.1,366.2,315.7,366.2z M345.2,271.2
					c-2.3,0-4.6,0.1-6.9,0.3c-22.9,2.2-53.3,16.9-64.6,39.9l0,0c-6.7,13.5-5.2,29.6,3.6,39.1c6.2,6.6,15.7,10.6,29.3,12
					c9.2,1,16.4,0.6,22.8-1.2c5.2-1.5,10.2-4.1,15-6.5l20.7-10.7c6.3-3.3,13.4-7,18.3-12.6c9.5-11,9.2-30-0.7-43.1
					c-3.4-4.5-7.7-8.4-12.5-11.1C363.3,273.2,354.8,271.2,345.2,271.2z"/>
			</g>
			<g>
				<path class="st10" d="M321.5,288.1c10.6-3.9,22.3-5.9,33.3-3c10.9,2.8,20.9,11.4,23,22.5c2.2,11.3-4.1,23-13.2,30
					s-20.5,10.3-31.8,12.5c-18.4,3.6-49.9,2.8-52.6-22.3C277.9,307.6,306.3,293.6,321.5,288.1z"/>
			</g>
			<g>
				<path class="st11" d="M319.9,343.9c-0.9,0-1.9,0-2.8-0.1c-8.1-0.6-15.8-4.7-20.2-10.7c-3.5-4.8-4.7-10.5-3.3-16.4
					c2-8.5,12.1-12.6,20.2-15.9c2-0.8,3.9-1.6,5.5-2.3c9.5-4.5,18.2-8.2,27.5-8l0,0c7.8,0.2,17.3,4.2,21,12.6
					c3.8,8.7-0.1,18.6-5.7,24.4c-6.3,6.7-15.3,10.2-22.4,12.5C333.8,342,327,343.9,319.9,343.9z M345.7,292.5
					c-8.7,0-16.8,3.5-25.7,7.8c-1.7,0.8-3.6,1.6-5.6,2.4c-7.7,3.1-17.3,7-19.1,14.5c-1.3,5.3-0.2,10.4,3,14.8
					c4.1,5.5,11.3,9.3,18.8,9.9c7.8,0.6,15.4-1.5,21.9-3.6c7.3-2.4,15.6-5.7,21.6-12c5.1-5.4,8.8-14.4,5.3-22.3
					c-3.3-7.6-12.1-11.2-19.3-11.4C346.4,292.5,346,292.5,345.7,292.5z"/>
			</g>
			<g>
				<path class="st11" d="M325.7,335c-6.1,0-12.4-1.6-18.4-4.6c-5.9-3-9.4-7-10.1-11.4c-0.6-3.7,0.9-8,4.1-11.4
					c2.8-3,6.5-5.1,9.7-6.9c1.6-0.9,3.2-1.9,4.9-3c5.3-3.4,11.3-7.2,17.3-7.4c7.7-0.2,14.4,3.2,17.9,9.2c3.9,6.7,3.5,16-1,23
					c-4.1,6.4-11.6,11-19.8,12.2C328.8,334.9,327.3,335,325.7,335z M334.1,292.2c-0.3,0-0.5,0-0.8,0c-5.5,0.2-11.3,3.9-16.4,7.1
					c-1.7,1.1-3.4,2.2-5,3.1l0,0c-3.1,1.8-6.6,3.7-9.2,6.5c-2.7,2.9-4.1,6.6-3.6,9.8c0.8,4.8,5.4,8,9.1,10
					c7.1,3.7,14.9,5.1,21.8,4.1c7.7-1.1,14.6-5.3,18.5-11.3c4.1-6.4,4.5-14.8,0.9-21C346.4,295.2,340.7,292.2,334.1,292.2z"/>
			</g>
			<g>
				<path class="st11" d="M313.7,346.6c-2.3,0-4.6-0.3-6.9-1.1c-4.8-1.7-9.1-5.5-13.1-11.5c-3.2-4.8-4.8-8.9-5-12.9
					c-0.4-7.8,5.6-12.7,10.9-17c0.6-0.5,1.2-1,1.8-1.5c6.9-5.7,15-9.7,23.6-11.6l0,0c9.9-2.2,19.2-1.2,26.2,2.9
					c8.4,4.9,13,14.9,10.8,23.2c-1.9,7.3-8.2,12.3-12.8,15.5c-7.1,5-15,8.9-23.2,11.6C322.7,345.3,318.3,346.6,313.7,346.6z
					 M325.4,292.9c-8.3,1.9-16.1,5.7-22.8,11.2c-0.6,0.5-1.2,1-1.8,1.5c-5.2,4.2-10.6,8.5-10.2,15.4c0.2,3.6,1.7,7.4,4.7,11.9
					c3.8,5.7,7.8,9.2,12.2,10.8c6.2,2.2,13.2,0.3,17.9-1.2c8.1-2.7,15.7-6.5,22.7-11.4c4.3-3,10.3-7.8,12-14.4c2-7.5-2.3-16.6-10-21
					C343.6,291.7,334.8,290.8,325.4,292.9L325.4,292.9z"/>
			</g>
			<g>
				<path class="st11" d="M321.4,329.9c-1.1,0-2.3,0-3.4-0.1c-4.5-0.3-7.5-1.8-8.8-4.4l0,0c-3.9-7.7,5.8-19.4,12.2-23.5
					c7.1-4.6,17.7-7.4,25.6-3.3c3.7,1.9,7.7,5.8,8,11.1c0.3,7.6-7.3,12.6-10.6,14.4C337.4,327.9,329.4,329.9,321.4,329.9z
					 M310.9,324.6c1,1.9,3.4,3,7.2,3.3c8.7,0.7,17.7-1.3,25.3-5.4c3-1.6,9.9-6.1,9.6-12.6c-0.2-3.7-2.9-7.4-6.9-9.5
					c-7.2-3.7-17-1.1-23.6,3.2C316.6,307.4,307.7,318.2,310.9,324.6L310.9,324.6z"/>
			</g>
			<g>
				<path class="st11" d="M317.1,336.1c-1,0-2-0.1-3-0.2l0,0c-4.8-0.6-8.7-2.8-11.1-6.2c-2.5-3.5-3.3-8.1-2.3-13
					c2.3-11.4,7.6-16.6,17.7-23.3c7.7-5.1,16.5-7,24.2-5.2c6.4,1.5,11.7,5.6,15.3,11.7c2.6,4.6,3.3,9.4,1.9,13.3
					c-1.5,4.2-5.1,7.1-8.4,9.3c-6.6,4.5-13.8,8.2-21.4,10.9C326.4,334.8,321.9,336.1,317.1,336.1z M336.7,289.5
					c-5.7,0-11.8,1.9-17.2,5.5c-9.7,6.4-14.7,11.4-16.9,22.1c-0.9,4.4-0.2,8.4,2,11.5c2.1,3,5.5,4.9,9.8,5.4l0,0
					c5.4,0.7,10.8-0.9,14.9-2.3c7.4-2.6,14.5-6.2,21-10.6c3.1-2.1,6.4-4.8,7.7-8.4c1.2-3.4,0.6-7.7-1.8-11.7
					c-3.3-5.7-8.1-9.4-14-10.8C340.4,289.7,338.6,289.5,336.7,289.5z"/>
			</g>
			<g>
				<path class="st11" d="M329.4,325.8c-2.5,0-4.9-0.8-6.6-2.3c-2.4-2.1-3.3-5.3-2.4-9c1.2-5.1,7.2-9.3,17.9-12.4l0,0
					c2.4-0.7,5.9-1.4,8.7,0.4c2.5,1.6,3.7,5.1,2.8,8.5c-0.6,2.5-2.2,4.8-4.9,7.3c-3.2,2.9-7,5.2-11,6.7
					C332.4,325.5,330.9,325.8,329.4,325.8z M338.8,304c-12.4,3.6-15.9,8-16.5,11c-0.7,2.9,0,5.5,1.8,7.1c2.2,1.9,5.8,2.4,9.1,1.1
					c3.8-1.4,7.4-3.6,10.4-6.3c2.4-2.2,3.8-4.2,4.3-6.3c0.6-2.2,0-5-2-6.4C344.3,303.1,342,303.1,338.8,304L338.8,304z"/>
			</g>
			<g>
				<path class="st11" d="M331.9,320.3c-1.4,0-2.9-0.4-3.9-1.3c-0.6-0.6-1.6-1.9-0.8-4.2c1.2-3.7,7.8-5.2,10.2-5.5l0,0
					c1.9-0.2,4.4,0.2,5.1,2.3c0.5,1.5-0.2,3.1-2,4.6c-1.8,1.5-3.7,2.7-5.8,3.5C333.9,320.1,332.9,320.3,331.9,320.3z M337.7,311.3
					c-3.1,0.4-7.9,2-8.6,4.2c-0.5,1.5,0.1,2,0.3,2.2c0.9,0.8,3.1,1,4.7,0.4c1.9-0.8,3.7-1.9,5.3-3.2c0.5-0.4,1.7-1.6,1.4-2.6
					C340.5,311.4,339,311.1,337.7,311.3L337.7,311.3z"/>
			</g>
		</g>
		<g>
			<g>
				<path class="st4" d="M85,358.2c4.7-1.3,9-5.2,9.5-10.1c0.4-3.7-1.4-7.4-3.6-10.4c-1.5-2.2-3.3-4.2-5.5-5.6
					c-1.6-1-3.3-1.7-5.1-2.4c-2.4-0.9-4.9-1.9-7.3-2.8c-2.4-0.9-4.9-1.9-7.5-1.9c-5.5,0.1-10.1,4.8-11.3,10.2
					c-0.4,1.9-0.4,3.9,0,5.8c0.8,3.7,3.1,7,5.8,9.6C66.1,356.3,76.7,360.5,85,358.2z"/>
			</g>
			<g>
				<path class="st4" d="M88.1,333.1c1.5,1.4,2.8,3.1,4.2,5.4c2.6,4.3,3.6,8.1,3,11.5c-0.9,4.9-5.4,9.1-11,10.2l0,0
					c-9.3,1.8-20.1-3.6-25.9-9.9c-3.1-3.4-5-7.1-5.5-10.7c-0.3-2.1-0.1-4.2,0.5-6.3c1.7-6.2,7.4-10.5,13.1-10.2
					c2.8,0.2,5.5,1.4,7.8,2.5l7.4,3.5c1.8,0.8,3.6,1.7,5.2,2.9C87.3,332.3,87.7,332.7,88.1,333.1z M84.1,359c5.2-1,9.3-4.8,10.1-9.3
					c0.5-3.1-0.4-6.6-2.9-10.7c-1.7-2.8-3.3-4.7-5.2-6.1c-1.5-1.1-3.3-2-5-2.8l-7.4-3.5c-2.2-1.1-4.8-2.3-7.4-2.4
					c-5.1-0.3-10.3,3.8-11.8,9.3c-0.5,1.9-0.7,3.9-0.4,5.8c0.4,3.4,2.2,6.9,5.2,10.1C64.8,355.4,75.3,360.7,84.1,359L84.1,359z"/>
			</g>
			<g>
				<path class="st4" d="M89.3,332.1c0.8,0.8,1.7,1.6,2.5,2.6c3.6,4.2,5.4,8,5.4,11.8c0,5.4-4.1,10.8-9.9,13l0,0
					c-9.6,3.7-22.2-0.1-29.6-5.7c-4-3-6.7-6.6-7.9-10.5c-0.7-2.2-0.9-4.5-0.7-6.8c0.7-6.9,5.9-12.7,12.1-13.4
					c3.1-0.4,6.2,0.5,8.9,1.2l8.6,2.4c2.1,0.6,4.2,1.2,6.1,2.1C86.3,329.6,87.7,330.7,89.3,332.1z M56.4,351.1
					c0.6,0.6,1.3,1.2,2,1.7c7,5.3,19.4,9.1,28.5,5.6l0,0c5.4-2.1,9.1-7,9.1-11.9c0-3.5-1.7-7-5.1-11c-2.3-2.7-4.5-4.4-6.7-5.6
					c-1.8-0.9-3.9-1.5-5.9-2.1l-8.6-2.4c-2.6-0.7-5.6-1.5-8.4-1.2c-5.5,0.6-10.3,6-11,12.3c-0.2,2.2,0,4.4,0.6,6.4
					C51.8,345.8,53.7,348.6,56.4,351.1z"/>
			</g>
			<g>
				<path class="st10" d="M67.4,352.5c-4-1.7-7.8-4.1-10.1-7.8c-2.3-3.6-2.9-8.6-0.6-12.3c2.3-3.7,7.1-5.4,11.5-5
					c4.4,0.4,8.4,2.4,12.2,4.8c6.1,3.8,14.7,12.1,9,19.9C84.7,358.3,73.1,354.9,67.4,352.5z"/>
			</g>
			<g>
				<path class="st11" d="M82.3,337.3c0.3,0.2,0.5,0.5,0.8,0.8c2.1,2.3,3.2,5.4,2.9,8.2c-0.3,2.3-1.4,4.2-3.3,5.5
					c-2.8,1.9-6.7,0.4-9.8-0.8c-0.8-0.3-1.5-0.6-2.2-0.8c-3.8-1.2-7.2-2.4-9.8-4.9l0,0c-2.1-2.1-3.8-5.7-2.6-9
					c1.2-3.4,4.8-5.2,7.9-5.4c3.5-0.2,6.9,1.1,9.5,2.3C77.9,334.2,80.3,335.4,82.3,337.3z M61.7,345c2.4,2.2,5.6,3.4,9.2,4.5
					c0.7,0.2,1.4,0.5,2.2,0.8c3,1.1,6.7,2.5,9.1,0.9c1.7-1.2,2.8-2.9,3-4.9c0.3-2.6-0.7-5.5-2.7-7.6c-2-2.2-4.7-3.6-7.1-4.7
					c-2.7-1.2-5.9-2.5-9.2-2.2c-2.8,0.2-6.2,1.8-7.3,4.9c-1,3,0.5,6.3,2.4,8.2C61.6,344.8,61.7,344.9,61.7,345z"/>
			</g>
			<g>
				<path class="st11" d="M78.4,338.2c1.7,1.6,3.1,3.7,4,6.1c0.9,2.4,0.8,4.4-0.1,5.8c-0.8,1.2-2.3,2-4.1,2.1
					c-1.6,0.1-3.1-0.3-4.5-0.6c-0.7-0.2-1.4-0.3-2.2-0.4c-2.4-0.4-5.1-0.9-6.8-2.4c-2.2-1.9-3.2-4.6-2.6-7.2
					c0.6-2.9,3.1-5.4,6.2-6.2c2.8-0.7,6.1-0.1,8.7,1.7C77.5,337.5,77.9,337.8,78.4,338.2z M64.9,348.1c0.1,0.1,0.1,0.1,0.2,0.2
					c1.6,1.4,4.2,1.8,6.4,2.2c0.8,0.1,1.5,0.3,2.2,0.4l0,0c1.3,0.3,2.8,0.7,4.3,0.6c1.5-0.1,2.9-0.8,3.5-1.8c1-1.5,0.6-3.7,0-5.2
					c-1.1-2.9-2.8-5.3-5.1-6.8c-2.4-1.7-5.5-2.3-8.1-1.6c-2.8,0.7-5.1,3-5.7,5.6C62.3,344,63.1,346.4,64.9,348.1z"/>
			</g>
			<g>
				<path class="st11" d="M84.7,338.1c0.6,0.6,1.2,1.3,1.6,2.1c0.9,1.7,1.1,3.9,0.7,6.6c-0.4,2.2-1,3.7-1.9,4.9
					c-1.9,2.3-4.9,2.1-7.4,1.9c-0.3,0-0.6,0-0.9-0.1c-3.4-0.2-6.7-1.2-9.6-2.9l0,0c-3.4-1.9-5.7-4.6-6.6-7.6c-1.1-3.5,0.2-7.5,3-9.3
					c2.4-1.5,5.5-1.3,7.6-1c3.3,0.5,6.5,1.4,9.5,2.8C81.9,336.1,83.5,336.9,84.7,338.1z M67.6,350.1c2.8,1.6,6,2.6,9.3,2.8
					c0.3,0,0.6,0,0.9,0.1c2.5,0.2,5.2,0.4,6.8-1.7c0.9-1.1,1.4-2.5,1.8-4.6c0.4-2.6,0.2-4.6-0.6-6.2c-1.2-2.2-3.6-3.5-5.4-4.3
					c-3-1.3-6.1-2.3-9.3-2.7c-2-0.3-4.9-0.5-7.1,0.9c-2.5,1.6-3.6,5.2-2.7,8.5C62.1,345.7,64.4,348.3,67.6,350.1L67.6,350.1z"/>
			</g>
			<g>
				<path class="st11" d="M78.3,340.8c0.3,0.3,0.6,0.6,0.9,0.9c1.2,1.3,1.6,2.4,1.3,3.5l0,0c-0.9,3.2-6.7,3.9-9.5,3.4
					c-3.2-0.5-6.9-2.5-8-5.7c-0.5-1.5-0.7-3.6,0.6-5.2c1.9-2.2,5.3-1.7,6.7-1.3C73.3,337.2,76,338.7,78.3,340.8z M79.8,345
					c0.2-0.8-0.2-1.7-1.2-2.8c-2.3-2.4-5.3-4.2-8.5-5c-1.3-0.3-4.3-0.9-6,1.1c-0.9,1.1-1.1,2.8-0.5,4.5c1,2.9,4.5,4.7,7.5,5.2
					C73.8,348.4,79.1,347.6,79.8,345L79.8,345z"/>
			</g>
			<g>
				<path class="st11" d="M81.1,340.1c0.3,0.3,0.5,0.5,0.8,0.8l0,0c1.2,1.4,1.7,3,1.5,4.6c-0.2,1.6-1.2,3.1-2.7,4.3
					c-3.6,2.6-6.4,2.7-11,1.9c-3.5-0.6-6.4-2.3-8.1-4.8c-1.4-2.1-1.8-4.6-1.2-7.2c0.4-2,1.5-3.5,2.9-4.2c1.5-0.8,3.3-0.7,4.8-0.4
					c3,0.4,6,1.3,8.8,2.5C78.1,338.1,79.8,338.9,81.1,340.1z M63.5,348.1c1.6,1.5,3.8,2.5,6.3,2.9c4.4,0.7,7.1,0.6,10.5-1.8
					c1.4-1,2.2-2.3,2.4-3.8c0.2-1.4-0.3-2.8-1.3-4.1l0,0c-1.3-1.6-3.3-2.5-4.8-3.2c-2.8-1.2-5.7-2-8.6-2.5c-1.4-0.2-3-0.3-4.3,0.4
					c-1.2,0.6-2.1,2-2.5,3.8c-0.6,2.4-0.2,4.7,1.1,6.7C62.5,347.1,63,347.7,63.5,348.1z"/>
			</g>
			<g>
				<path class="st11" d="M75,339.9c0.7,0.7,1.2,1.5,1.3,2.3c0.1,1.2-0.5,2.3-1.6,3.1c-1.6,1.1-4.4,0.7-8.2-1.2l0,0
					c-0.9-0.4-2-1.1-2.3-2.4c-0.3-1.1,0.3-2.4,1.4-3.1c0.8-0.5,1.9-0.8,3.3-0.8c1.6,0,3.3,0.3,4.8,1C74.1,339.2,74.5,339.5,75,339.9
					z M66.7,343.5c4.4,2.2,6.5,1.9,7.5,1.2c1-0.7,1.4-1.5,1.3-2.5c-0.1-1.1-1-2.2-2.3-2.7c-1.4-0.6-3-0.9-4.6-0.9
					c-1.2,0-2.2,0.2-2.9,0.6c-0.7,0.5-1.3,1.4-1.1,2.3C64.9,342.4,65.5,343,66.7,343.5L66.7,343.5z"/>
			</g>
			<g>
				<path class="st11" d="M72.8,340.7c0.4,0.4,0.7,0.9,0.7,1.4c0,0.3-0.1,0.9-0.9,1.4c-1.3,0.7-3.5-0.6-4.3-1.1l0,0
					c-0.6-0.4-1.2-1.2-0.8-2c0.2-0.5,0.9-0.8,1.8-0.8c0.9,0,1.7,0.2,2.5,0.5C72.2,340.3,72.5,340.5,72.8,340.7z M68.9,341.8
					c1,0.7,2.7,1.5,3.5,1.1c0.5-0.3,0.5-0.6,0.5-0.7c0-0.5-0.6-1.1-1.2-1.3c-0.7-0.3-1.5-0.4-2.3-0.5c-0.3,0-0.9,0-1.1,0.3
					C68.1,341,68.5,341.5,68.9,341.8L68.9,341.8z"/>
			</g>
		</g>
		<path class="st9" d="M341,248.7c-7.3,3.7-13.6,9-18.4,17.7c-0.8,1.4-1.5,3-1,4.5c0.8,2.4,4.1,2.9,6.5,2.3c3.1-0.8,5.8-2.7,8.5-4.5
			c2.7-1.8,5.4-3.6,8.6-4.3c4.1-0.8,5.9,1.1,9.2,2.6c4.6,2.1,9.9,3.2,14.7,4.7c8.6,2.8,17.4,5.6,26.5,5.8c12.7,0.4,31.5-5.9,39-17.1
			c1.2-1.9,1.6-4.6,0.1-6.3c-1.2-1.4-3.2-1.8-5-1.5c-1.8,0.3-3.5,1.2-5.1,2.1c-10,5.2-21.1,8.4-32.3,9.4c-4.6,0.4-9.6,0.4-13.7-1.7
			c-3.9-2-7.1-6.5-6-11c0.9-3.6,6.7-7.5,3.4-11.5c-2.2-2.6-4.7-0.9-7.4-0.2C358.7,242.4,349.2,244.5,341,248.7z"/>
		<path class="st9" d="M264.3,310.5c9.3-7.6,12.5-21.9,23.6-26.4c3.6-1.4,8.5-2.6,8.7-6.5c0.2-2.6-2.5-4.8-5.1-5
			c-2.6-0.2-5.1,1.1-7.3,2.6c-9.9,6.9-16.9,19.4-28.9,21c-3.7,0.5-7.4-0.1-11-0.6c-3.7-0.4-7.5-0.7-11,0.5c-3.5,1.2-6.6,4.1-6.9,7.8
			c-0.4,4.6,3,5.9,6.4,7c3.2,1,6.5,2.6,9.8,3.6C250,316.7,258.4,315.4,264.3,310.5z"/>
		<path class="st9" d="M213,310.2c-4.8,3.4-11,4.2-16.9,4.5c-5.9,0.3-12,0.3-17.5,2.4c-2.9,1.1-5.5,2.8-8.4,4
			c-2.9,1.2-6.1,1.9-9.1,0.9c-3-1-5.4-4.1-4.7-7.1c0.8-3.7,5.2-5.3,9-5.8c6.2-0.8,12.5-0.6,18.7-1.2c6.2-0.7,12.6-2.3,17.3-6.4
			c2.4-2.1,4.4-4.9,7.2-6.5C220.7,288,220.8,304.8,213,310.2z"/>
		<path class="st9" d="M149.2,311.5c1.1,0.3,2.2,1.1,2.4,2.3c0.4,1.6-0.9,3.1-2.2,4.2c-5.2,4.4-36.4,16.5-28.6-0.2
			c1.9-4.1,5.2-4.9,9.4-5.4C135.6,311.8,144.1,310,149.2,311.5z"/>
		<path class="st9" d="M141.2,59.7c0,3-4.4,5.4-9.9,5.4c-5.5,0-9.9-2.4-9.9-5.4c0-3,4.4-5.4,9.9-5.4
			C136.8,54.3,141.2,56.7,141.2,59.7z"/>
		<path class="st9" d="M156.3,49.7c0,1.3-1,2.3-2.3,2.3s-2.3-1-2.3-2.3c0-1.3,1-2.3,2.3-2.3S156.3,48.4,156.3,49.7z"/>
		<path class="st9" d="M218.4,131.1c0,2.3-3.3,4.1-7.3,4.1s-7.3-1.8-7.3-4.1c0-2.3,3.2-4.1,7.3-4.1S218.4,128.9,218.4,131.1z"/>
		<path class="st9" d="M256.3,135.2c0,0-1.1,0-2.5,0c-1.4,0-2.5,0-2.5,0s1.1,0,2.5,0C255.2,135.2,256.3,135.2,256.3,135.2z"/>
		<path class="st9" d="M253.8,24.3c0,3-5.2,5.4-11.5,5.4s-11.5-2.4-11.5-5.4s5.2-5.4,11.5-5.4S253.8,21.3,253.8,24.3z"/>
		<path class="st9" d="M389.6,196.2c0,2.6-5,4.7-11.1,4.7c-6.1,0-11.1-2.1-11.1-4.7c0-2.6,5-4.7,11.1-4.7
			C384.6,191.5,389.6,193.6,389.6,196.2z"/>
		<ellipse class="st9" cx="67.1" cy="226" rx="17" ry="7.9"/>
		<path class="st4" d="M282.9,379.6c0,4-5.9,7.3-13.3,7.3c-7.3,0-13.3-3.3-13.3-7.3c0-4,5.9-7.3,13.3-7.3
			C276.9,372.3,282.9,375.6,282.9,379.6z"/>
		<path class="st4" d="M315.8,385.6c0,2.8-4.3,5.1-9.6,5.1s-9.6-2.3-9.6-5.1c0-2.8,4.3-5.1,9.6-5.1S315.8,382.7,315.8,385.6z"/>
		<ellipse class="st4" cx="304.3" cy="177.8" rx="17.2" ry="6.7"/>
		<ellipse class="st4" cx="199.8" cy="25.5" rx="7.3" ry="4.1"/>
		<path class="st4" d="M334.9,72.8c0,2.6-6.8,4.6-15.3,4.6c-8.4,0-15.3-2.1-15.3-4.6c0-2.6,6.8-4.6,15.3-4.6
			C328,68.2,334.9,70.3,334.9,72.8z"/>
		<path class="st4" d="M121.2,188.5c7.9,2.3,14.9,8.7,23.1,7.9c6.2-0.6,11.1-5.1,16-8.9c4.9-3.8,11.2-7.1,17.1-5
			c3.2,1.1,5.7,3.8,9.1,4.3c6.5,1,11.1-8.1,7.9-13.9c-3.2-5.8-11-7.6-17.4-6.1s-11.9,5.6-17.3,9.3c-5.4,3.7-11.4,7.3-18,7.6
			c-13,0.5-24.4-11.8-37.2-9.7c-5.3,0.9-10.2,5.1-15.6,5.3c-5.6,0.2-10.1-3.6-14.9-6.5c-2.6-1.5-6.4-2.8-8-0.3
			c-1.5,2.2,0.4,5.1,2.4,6.8c7.8,7,16.4,9.4,26.6,9.5C103.2,189.1,112.9,186.1,121.2,188.5z"/>
		<path class="st4" d="M189.6,193.9c4.5,0.1,8.9-2.3,11.4-6c3.5-5.2,3-12.1,5.8-17.6c3-5.9,9.8-9.7,16.4-9c3,0.3,6,1.5,7.9,3.7
			c1.9,2.3,2.6,5.8,1.1,8.3c-2.1,3.5-7.2,4.5-8.9,8.2c-1.1,2.6-0.2,5.6-0.9,8.3c-1.2,4.7-6.5,6.9-11.2,8.3
			c-5.4,1.6-10.9,3.2-16.5,3.5c-5.6,0.3-11.5-0.7-16.2-3.8c-1.8-1.2-3.6-3-3.8-5.2C173.7,184.1,186.1,193.9,189.6,193.9z"/>
		<path class="st4" d="M251.7,182.3c1.6,1.1,2.5,3.1,4.3,3.8c3.6,1.6,7.5-2.8,11.3-2.1c2.6,0.5,4.2,3.5,3.7,6.1s-2.7,4.6-5.2,5.5
			c-2.5,0.9-5.3,0.7-7.9,0.2c-3.6-0.7-7.6-2-10.6,0c-2.5,1.6-3.7,5-6.6,5.8C230.6,204.6,240.3,174.3,251.7,182.3z"/>
		<path class="st4" d="M350.2,163.2c4.3-6.8,10.1-12.8,16.8-17.3c1.9-1.3,4.7-2.5,6.4-0.9c1.9,1.7,0.6,5-1.2,6.9
			c-4.1,4.5-10.2,7.5-12.4,13.1c-1.2,3.1-1.1,6.6-2.7,9.6c-2.4,4.4-18.5,10.5-21.5,4.1C334.4,176.2,348,166.7,350.2,163.2z"/>
	</g>
	<g class="st12">
		<path class="st13" d="M356.3,52.6c27.8,36.3,44.4,81.7,44.4,130.9c0,119-96.8,215.9-215.9,215.9c-49.2,0-94.6-16.6-130.9-44.4
			c39.5,51.6,101.6,85,171.5,85c119,0,215.9-96.8,215.9-215.9C441.3,154.2,407.9,92.1,356.3,52.6z"/>
	</g>
</g>
</svg>
