<?xml version="1.0" encoding="utf-8"?>
<!-- Generator: Adobe Illustrator 23.0.5, SVG Export Plug-In . SVG Version: 6.00 Build 0)  -->
<svg version="1.1" id="Layer_1" xmlns="http://www.w3.org/2000/svg" xmlns:xlink="http://www.w3.org/1999/xlink" x="0px" y="0px"
	 viewBox="0 0 450 450" style="enable-background:new 0 0 450 450;" xml:space="preserve">
<style type="text/css">
	.st0{fill:#095EA1;}
	.st1{opacity:0.47;clip-path:url(#SVGID_1_);fill:#064182;}
	.st2{clip-path:url(#SVGID_1_);fill:#2081AB;}
	.st3{opacity:0.43;clip-path:url(#SVGID_1_);fill:#2081AB;}
	.st4{opacity:0.4;}
	.st5{opacity:0.56;fill:#10162E;}
	.st6{opacity:0.43;fill:#2081AB;}
	.st7{opacity:0.39;fill:#064182;}
</style>
<g>
	<g>
		<g>
			<ellipse transform="matrix(0.7071 -0.7071 0.7071 0.7071 -96.7406 226.4842)" class="st0" cx="225" cy="230" rx="218" ry="218"/>
			<ellipse transform="matrix(0.7071 -0.7071 0.7071 0.7071 -96.7406 226.4842)" class="st0" cx="225" cy="230" rx="218" ry="218"/>
			<g>
				<defs>
					
						<ellipse id="SVGID_3_" transform="matrix(0.7071 -0.7071 0.7071 0.7071 -96.7406 226.4842)" cx="225" cy="230" rx="218" ry="218"/>
				</defs>
				<clipPath id="SVGID_1_">
					<use xlink:href="#SVGID_3_"  style="overflow:visible;"/>
				</clipPath>
				<path class="st1" d="M362.9,300.1c27.5,4.6,53.3,13.8,73.1,32.9c13.3,12.9,23,30.3,23.6,48.8c0.6,18.5-9.2,37.8-25.9,45.6
					c-22.9,10.7-57.9-7.7-80.9-13.3c-31.6-7.6-61.8-15.1-94.5-16.6c-61-2.8-122.7,9.1-177.9,35.4c-16.5,7.8-34.5,17.2-52.1,12.3
					c-18.7-5.2-29.9-25.5-30.8-44.9C-4.7,355,19.8,335,59.2,320.5c76.3-27.9,159.7-26.9,240.9-25.1
					C320.7,295.9,342.3,296.7,362.9,300.1z"/>
				<path class="st1" d="M466.6,285.8c43,11.2,82.7,26.6,111.3,50.3c19.2,16,32,35.5,30.1,54c-1.9,18.5-20.3,35.1-48.1,38.8
					c-38.1,5-90.8-21.7-126.6-32.8c-49.1-15.2-95.9-30-147.7-39.4C189,339.2,89.1,335.9-2.6,348.4c-27.4,3.7-57.4,8.6-84.7-0.5
					c-28.9-9.7-43.7-32.5-42.2-51.8c3.6-45.4,45.5-59.2,110.3-63.9c125.4-9.1,257.8,12.3,386.6,33.8
					C400.3,271.4,434.4,277.4,466.6,285.8z"/>
				<path class="st2" d="M483.2,41.8c43,11.2,82.7,26.6,111.3,50.3c19.2,16,32,35.5,30.1,54c-1.9,18.5-20.3,35.1-48.1,38.8
					c-38.1,5-90.8-21.7-126.6-32.8c-49.1-15.2-95.9-30-147.7-39.4C205.6,95.2,105.7,91.9,14,104.4c-27.4,3.7-57.4,8.6-84.7-0.5
					c-28.9-9.7-43.7-32.5-42.2-51.8C-109.3,6.7-67.4-7.1-2.5-11.8c125.4-9.1,257.8,12.3,386.6,33.8C416.9,27.4,451,33.4,483.2,41.8z
					"/>
				<path class="st3" d="M474.4,15.4c43,11.2,82.7,26.6,111.3,50.3c19.2,16,32,35.5,30.1,54c-1.9,18.5-20.3,35.1-48.1,38.8
					c-38.1,5-90.8-21.7-126.6-32.8c-49.1-15.2-95.9-30-147.7-39.4C196.8,68.7,96.9,65.5,5.2,78c-27.4,3.7-57.4,8.6-84.7-0.5
					c-28.9-9.7-43.7-32.5-42.2-51.8c3.6-45.4,45.5-59.2,110.3-63.9C114.1-47.4,246.5-26,375.3-4.5C408,0.9,442.1,7,474.4,15.4z"/>
				<path class="st1" d="M468.8,374.9c43,11.2,82.7,26.6,111.3,50.3c19.2,16,32,35.5,30.1,54c-1.9,18.5-20.3,35.1-48.1,38.8
					c-38.1,5-90.8-21.7-126.6-32.8c-49.1-15.2-95.9-30-147.7-39.4C191.2,428.3,91.3,425-0.4,437.5c-27.4,3.7-57.4,8.6-84.7-0.5
					c-28.9-9.7-43.7-32.5-42.2-51.8c3.6-45.4,45.5-59.2,110.3-63.9c125.4-9.1,257.8,12.3,386.6,33.8
					C402.4,360.5,436.5,366.5,468.8,374.9z"/>
				<path class="st1" d="M476.8,316.4c43,11.2,82.7,26.6,111.3,50.3c19.2,16,32,35.5,30.1,54c-1.9,18.5-20.3,35.1-48.1,38.8
					c-38.1,5-90.8-21.7-126.6-32.8c-49.1-15.2-95.9-30-147.7-39.4C199.3,369.7,99.3,366.5,7.6,379c-27.4,3.7-57.4,8.6-84.7-0.5
					c-28.9-9.7-43.7-32.5-42.2-51.8c3.6-45.4,45.5-59.2,110.3-63.9c125.4-9.1,257.8,12.3,386.6,33.8
					C410.5,301.9,444.6,308,476.8,316.4z"/>
			</g>
			<g class="st4">
				<path class="st5" d="M355.3,59.3c27.7,36.2,44.2,81.3,44.2,130.3c0,118.5-96.4,214.8-214.8,214.8c-49,0-94.1-16.5-130.3-44.2
					c39.3,51.4,101.2,84.6,170.7,84.6c118.5,0,214.8-96.4,214.8-214.8C439.9,160.5,406.6,98.6,355.3,59.3z"/>
			</g>
		</g>
	</g>
	<path class="st6" d="M276.8,186.8c-0.6,22,20.4,37.9,37.5,47.7c-0.2-0.1-9.1,0.7-10.5,0.6c-4.3-0.5-8.5-1-12.7-2.1
		c-9.3-2.3-18.1-6.2-27-9.8c-17.1-7-36.7-13.1-53.5-5.5c27.3,0.9,52.5,13.4,77.7,23.9c16,6.7,32.6,12.7,50,14.5
		c8.4,0.9,16.7,0.6,25-0.7c7.6-1.2,16-4.9,23.7-4.9c-20,2.5-40.8-1.6-58.4-11.6c-13.8-7.8-25.6-19.3-33.9-32.8
		c-4.2-6.8-7.5-13.7-6.8-21.9c0.3-3.2,5-20.8,9-20.9C285.4,163.7,277.1,175.9,276.8,186.8z"/>
	<path class="st7" d="M360.7,235.2c-15.6-4.2-30.7-11.9-41.3-24.1c-4.1-4.7-7.5-10.3-8.8-16.4c-1.3-6.1-0.1-13,3.9-17.7
		c6.5-7.6,18-7.9,28-7.3c13.6,0.9,27.3,2.4,40.1,7.2c12.8,4.8,24.7,13,31.6,24.8C440,245.4,386.8,242.3,360.7,235.2z"/>
	<path class="st6" d="M374.3,164.1c-15.3-0.1-30.7-0.8-45.9-2.1c6.3-4.2,15.4-4.6,22.8-4.2c4.1,0.2,8.2,0.9,12.1,2
		C366.4,160.6,371.3,164.1,374.3,164.1z"/>
</g>
</svg>
